<svg id="Layer_3_copy" data-name="Layer 3 copy" xmlns="http://www.w3.org/2000/svg" viewBox="0 0 398.69 576.06"><defs><style>.cls-1{fill:#fff;}</style></defs><title>iot-wifi</title><g id="_Group_" data-name="&lt;Group&gt;"><g id="_Group_2" data-name="&lt;Group&gt;"><path id="_Compound_Path_" data-name="&lt;Compound Path&gt;" class="cls-1" d="M1116.31,808.06H781a31.71,31.71,0,0,1-31.68-31.68V263.68A31.71,31.71,0,0,1,781,232h335.32A31.72,31.72,0,0,1,1148,263.68v512.7A31.72,31.72,0,0,1,1116.31,808.06ZM781,248.42a15.29,15.29,0,0,0-15.27,15.26v512.7A15.29,15.29,0,0,0,781,791.64h335.32a15.29,15.29,0,0,0,15.27-15.26V263.68a15.29,15.29,0,0,0-15.27-15.26Z" transform="translate(-749.31 -232)"/></g></g><path class="cls-1" d="M966.44,575.86a21,21,0,1,1-21-21A21,21,0,0,1,966.44,575.86Z" transform="translate(-749.31 -232)"/><path class="cls-1" d="M945.4,495.94a92.07,92.07,0,0,0-56.5,19.28,5.24,5.24,0,0,0-.38,8L904,538.66a6.76,6.76,0,0,0,4.83,1.9,7.56,7.56,0,0,0,4.14-1.22,58.83,58.83,0,0,1,64.87,0,7.53,7.53,0,0,0,4.14,1.22,6.78,6.78,0,0,0,4.83-1.9l15.47-15.47a5.23,5.23,0,0,0-.38-8,92.07,92.07,0,0,0-56.5-19.28" transform="translate(-749.31 -232)"/><path class="cls-1" d="M945.4,437.05a150.77,150.77,0,0,0-96,34.4,8.13,8.13,0,0,0-.42,12.15l11.22,11.21a9.52,9.52,0,0,0,6.78,2.73,10.42,10.42,0,0,0,6.34-2.15,117.72,117.72,0,0,1,144.27,0,10.35,10.35,0,0,0,6.34,2.15,9.52,9.52,0,0,0,6.78-2.73l11.21-11.21a8.13,8.13,0,0,0-.41-12.15,150.79,150.79,0,0,0-96.06-34.4" transform="translate(-749.31 -232)"/><path class="cls-1" d="M945.4,378.16a209.33,209.33,0,0,0-135.55,49.59,11,11,0,0,0-.46,16.31l7,7a12.44,12.44,0,0,0,8.86,3.59,13.39,13.39,0,0,0,8.47-3,176.49,176.49,0,0,1,223.35,0,13.43,13.43,0,0,0,8.47,3,12.48,12.48,0,0,0,8.86-3.58l7-7a11,11,0,0,0-.46-16.3,209.37,209.37,0,0,0-135.56-49.6" transform="translate(-749.31 -232)"/></svg>