<svg id="Layer_3" data-name="Layer 3" xmlns="http://www.w3.org/2000/svg" viewBox="0 0 398.69 576.06"><defs><style>.cls-1{fill:#fff;}</style></defs><title>iot-cpu</title><path class="cls-1" d="M929.15,513.15a16.24,16.24,0,1,0,16.24,16.24A16.24,16.24,0,0,0,929.15,513.15Z" transform="translate(-749.31 -232)"/><path class="cls-1" d="M932.05,426.53a16.25,16.25,0,1,0,16.24,16.25A16.24,16.24,0,0,0,932.05,426.53Z" transform="translate(-749.31 -232)"/><path class="cls-1" d="M1008.67,464.77A16.24,16.24,0,1,0,1024.91,481,16.24,16.24,0,0,0,1008.67,464.77Z" transform="translate(-749.31 -232)"/><path class="cls-1" d="M1038,409a15,15,0,0,0-15-15H868a15,15,0,0,0-15,15V564a15,15,0,0,0,15,15H1023a15,15,0,0,0,15-15ZM858,439h51.34c1.93-10,11.35-19.32,22.71-19.32,11.57,0,21.12,9.32,22.79,19.32H1031v6H955a23.06,23.06,0,0,1-45.78,0H858Zm42,116h-6V532H858v-7h36V503.73a22.9,22.9,0,1,1,6,.25Zm131-22H951.85c-1.92,10-11.34,19.26-22.7,19.26A23.16,23.16,0,1,1,952,526h79Zm-22.33-29.24A22.33,22.33,0,0,1,986.32,486H933v-6h52.62c.3-13,10.5-22.3,23-22.3a23,23,0,1,1,0,46.06Z" transform="translate(-749.31 -232)"/><path class="cls-1" d="M897.79,464.77A16.24,16.24,0,1,0,914,481,16.24,16.24,0,0,0,897.79,464.77Z" transform="translate(-749.31 -232)"/><path class="cls-1" d="M828.05,406H808a4,4,0,0,0,0,8h20.09c1.17,3,4.33,6,8.05,6h2.14c4.72,0,7.76-3.56,7.76-8.28v-2.13c0-4.72-3-9.59-7.76-9.59H836.1A8,8,0,0,0,828.05,406Z" transform="translate(-749.31 -232)"/><path class="cls-1" d="M828.05,431H808c-2.16,0-3.92,2.34-3.92,4.5S805.8,440,808,440h20.09c1.17,2,4.33,5,8.05,5h2.14c4.72,0,7.76-3.1,7.76-7.82V435c0-4.72-3-10-7.76-10H836.1A8,8,0,0,0,828.05,431Z" transform="translate(-749.31 -232)"/><path class="cls-1" d="M828.05,456H808c-2.16,0-3.92,2.34-3.92,4.5S805.8,465,808,465h20.09a8,8,0,0,0,8.05,6h2.14c4.72,0,7.76-3.64,7.76-8.36V460.5c0-4.72-3-9.5-7.76-9.5H836.1C832.38,451,829.22,454,828.05,456Z" transform="translate(-749.31 -232)"/><path class="cls-1" d="M828.05,482H808a4,4,0,0,0,0,8h20.09a8,8,0,0,0,8.05,6h2.14c4.72,0,7.76-3.18,7.76-7.91V486c0-4.72-3-10-7.76-10H836.1C832.38,476,829.22,479,828.05,482Z" transform="translate(-749.31 -232)"/><path class="cls-1" d="M828.05,507H808c-2.16,0-3.92,2.34-3.92,4.5S805.8,516,808,516h20.09c1.17,4,4.33,5,8.05,5h2.14c4.72,0,7.76-2.73,7.76-7.45v-2.13c0-4.73-3-9.42-7.76-9.42H836.1A8.4,8.4,0,0,0,828.05,507Z" transform="translate(-749.31 -232)"/><path class="cls-1" d="M828.05,533H808a4,4,0,0,0,0,8h20.09a8,8,0,0,0,8.05,6h2.14c4.72,0,7.76-3.27,7.76-8v-2.14c0-4.72-3-9.87-7.76-9.87H836.1C832.38,527,829.22,530,828.05,533Z" transform="translate(-749.31 -232)"/><path class="cls-1" d="M828.05,558H808c-2.16,0-3.92,2.34-3.92,4.5S805.8,567,808,567h20.09a8.4,8.4,0,0,0,8.05,5h2.14c4.72,0,7.76-2.81,7.76-7.53v-2.14c0-4.72-3-10.33-7.76-10.33H836.1C832.38,552,829.22,555,828.05,558Z" transform="translate(-749.31 -232)"/><path class="cls-1" d="M1062,566H1082a4,4,0,0,0,0-8H1062c-1.17-3-4.33-6-8-6h-2.14c-4.72,0-7.76,4.9-7.76,9.62v2.14c0,4.72,3,8.24,7.76,8.24h2.14A8,8,0,0,0,1062,566Z" transform="translate(-749.31 -232)"/><path class="cls-1" d="M1062,541H1082c2.16,0,3.92-2.34,3.92-4.5s-1.76-4.5-3.92-4.5H1062c-1.17-2-4.33-5-8-5h-2.14c-4.72,0-7.76,4.44-7.76,9.17v2.13c0,4.72,3,8.7,7.76,8.7h2.14A8,8,0,0,0,1062,541Z" transform="translate(-749.31 -232)"/><path class="cls-1" d="M1062,516H1082c2.16,0,3.92-2.34,3.92-4.5s-1.76-4.5-3.92-4.5H1062c-1.17-3-4.33-6-8-6h-2.14c-4.72,0-7.76,5-7.76,9.71v2.14c0,4.72,3,8.15,7.76,8.15h2.14C1057.62,521,1060.78,518,1062,516Z" transform="translate(-749.31 -232)"/><path class="cls-1" d="M1062,490H1082a4,4,0,0,0,0-8H1062c-1.17-3-4.33-6-8-6h-2.14c-4.72,0-7.76,4.53-7.76,9.25v2.14c0,4.72,3,8.61,7.76,8.61h2.14A8,8,0,0,0,1062,490Z" transform="translate(-749.31 -232)"/><path class="cls-1" d="M1062,465H1082c2.16,0,3.92-2.34,3.92-4.5s-1.76-4.5-3.92-4.5H1062c-1.17-4-4.33-5-8-5h-2.14c-4.72,0-7.76,4.07-7.76,8.79v2.14c0,4.72,3,8.07,7.76,8.07h2.14C1057.62,470,1060.78,469,1062,465Z" transform="translate(-749.31 -232)"/><path class="cls-1" d="M1062,439H1082a4,4,0,0,0,0-8H1062a8,8,0,0,0-8-6h-2.14c-4.72,0-7.76,4.61-7.76,9.34v2.13c0,4.72,3,8.53,7.76,8.53h2.14C1057.62,445,1060.78,442,1062,439Z" transform="translate(-749.31 -232)"/><path class="cls-1" d="M1062,414H1082c2.16,0,3.92-2.34,3.92-4.5s-1.76-4.5-3.92-4.5H1062a8.4,8.4,0,0,0-8-5h-2.14c-4.72,0-7.76,4.16-7.76,8.88V411c0,4.72,3,9,7.76,9h2.14C1057.62,420,1060.78,417,1062,414Z" transform="translate(-749.31 -232)"/><path class="cls-1" d="M865,603.63v20.08a4,4,0,0,0,8,0V603.63c3-1.18,6-4.34,6-8.06v-2.13c0-4.73-4.23-8.44-9-8.44h-2.14c-4.72,0-8.91,3.71-8.91,8.44v2.13A8,8,0,0,0,865,603.63Z" transform="translate(-749.31 -232)"/><path class="cls-1" d="M890,603.63v20.08c0,2.17,2.34,3.92,4.5,3.92s4.5-1.75,4.5-3.92V603.63c2-1.18,5-4.34,5-8.06v-2.13a8.4,8.4,0,0,0-8.49-8.44h-2.14c-4.72,0-9.37,3.71-9.37,8.44v2.13A8,8,0,0,0,890,603.63Z" transform="translate(-749.31 -232)"/><path class="cls-1" d="M915,603.63v20.08c0,2.17,2.34,3.92,4.5,3.92s4.5-1.75,4.5-3.92V603.63a8,8,0,0,0,6-8.06v-2.13c0-4.73-4.31-8.44-9-8.44h-2.14a8.7,8.7,0,0,0-8.83,8.44v2.13C910,599.29,913,602.45,915,603.63Z" transform="translate(-749.31 -232)"/><path class="cls-1" d="M941,603.63v20.08a4,4,0,0,0,8,0V603.63c3-1.18,6-4.34,6-8.06v-2.13a8.48,8.48,0,0,0-8.58-8.44h-2.13c-4.73,0-9.29,3.71-9.29,8.44v2.13C935,599.29,938,602.45,941,603.63Z" transform="translate(-749.31 -232)"/><path class="cls-1" d="M966,603.63v20.08c0,2.17,2.34,3.92,4.5,3.92s4.5-1.75,4.5-3.92V603.63c4-1.18,5-4.34,5-8.06v-2.13a8.1,8.1,0,0,0-8.12-8.44h-2.14a8.62,8.62,0,0,0-8.74,8.44v2.13C961,599.29,962,602.45,966,603.63Z" transform="translate(-749.31 -232)"/><path class="cls-1" d="M992,603.63v20.08a4,4,0,0,0,8,0V603.63a8,8,0,0,0,6-8.06v-2.13a8.55,8.55,0,0,0-8.66-8.44H995.2c-4.72,0-9.2,3.71-9.2,8.44v2.13C986,599.29,989,602.45,992,603.63Z" transform="translate(-749.31 -232)"/><path class="cls-1" d="M1017,603.63v20.08c0,2.17,2.34,3.92,4.5,3.92s4.5-1.75,4.5-3.92V603.63a8.43,8.43,0,0,0,5-8.06v-2.13a8.17,8.17,0,0,0-8.2-8.44h-2.14c-4.73,0-9.66,3.71-9.66,8.44v2.13C1011,599.29,1014,602.45,1017,603.63Z" transform="translate(-749.31 -232)"/><path class="cls-1" d="M1025,369.72V349.63a4,4,0,0,0-8,0v20.09c-3,1.18-6,4.33-6,8v2.14c0,4.72,4.23,8.09,9,8.09h2.14c4.72,0,8.91-3.37,8.91-8.09v-2.14A8,8,0,0,0,1025,369.72Z" transform="translate(-749.31 -232)"/><path class="cls-1" d="M1000,369.72V349.63c0-2.16-2.34-3.92-4.5-3.92s-4.5,1.76-4.5,3.92v20.09c-2,1.18-5,4.33-5,8v2.14c0,4.72,3.77,8.09,8.49,8.09h2.14c4.72,0,9.37-3.37,9.37-8.09v-2.14A8,8,0,0,0,1000,369.72Z" transform="translate(-749.31 -232)"/><path class="cls-1" d="M975,369.72V349.63c0-2.16-2.34-3.92-4.5-3.92s-4.5,1.76-4.5,3.92v20.09a8,8,0,0,0-6,8v2.14c0,4.72,4.32,8.09,9,8.09h2.13c4.73,0,8.83-3.37,8.83-8.09v-2.14C980,374.05,977,370.9,975,369.72Z" transform="translate(-749.31 -232)"/><path class="cls-1" d="M949,369.72V349.63a4,4,0,0,0-8,0v20.09c-3,1.18-6,4.33-6,8v2.14c0,4.72,3.86,8.09,8.58,8.09h2.14c4.72,0,9.28-3.37,9.28-8.09v-2.14C955,374.05,952,370.9,949,369.72Z" transform="translate(-749.31 -232)"/><path class="cls-1" d="M924,369.72V349.63c0-2.16-2.34-3.92-4.5-3.92s-4.5,1.76-4.5,3.92v20.09c-4,1.18-5,4.33-5,8v2.14a7.81,7.81,0,0,0,8.12,8.09h2.14c4.72,0,8.74-3.37,8.74-8.09v-2.14C929,374.05,928,370.9,924,369.72Z" transform="translate(-749.31 -232)"/><path class="cls-1" d="M898,369.72V349.63a4,4,0,0,0-8,0v20.09a8,8,0,0,0-6,8v2.14c0,4.72,3.94,8.09,8.66,8.09h2.14c4.72,0,9.2-3.37,9.2-8.09v-2.14C904,374.05,901,370.9,898,369.72Z" transform="translate(-749.31 -232)"/><path class="cls-1" d="M873,369.72V349.63c0-2.16-2.34-3.92-4.5-3.92s-4.5,1.76-4.5,3.92v20.09a8.41,8.41,0,0,0-5,8v2.14a7.88,7.88,0,0,0,8.21,8.09h2.13c4.72,0,9.66-3.37,9.66-8.09v-2.14C879,374.05,876,370.9,873,369.72Z" transform="translate(-749.31 -232)"/><g id="_Group_" data-name="&lt;Group&gt;"><g id="_Group_2" data-name="&lt;Group&gt;"><path id="_Compound_Path_" data-name="&lt;Compound Path&gt;" class="cls-1" d="M1116.31,808.06H781a31.71,31.71,0,0,1-31.68-31.68V263.68A31.71,31.71,0,0,1,781,232h335.32A31.72,31.72,0,0,1,1148,263.68v512.7A31.72,31.72,0,0,1,1116.31,808.06ZM781,248.42a15.29,15.29,0,0,0-15.27,15.26v512.7A15.29,15.29,0,0,0,781,791.64h335.32a15.29,15.29,0,0,0,15.27-15.26V263.68a15.29,15.29,0,0,0-15.27-15.26Z" transform="translate(-749.31 -232)"/></g></g></svg>