<svg id="Layer_2" data-name="Layer 2" xmlns="http://www.w3.org/2000/svg" viewBox="0 0 398.69 576.06"><defs><style>.cls-1{fill:#fff;}</style></defs><title>iot-thing</title><g id="_Group_" data-name="&lt;Group&gt;"><g id="_Group_2" data-name="&lt;Group&gt;"><path id="_Compound_Path_" data-name="&lt;Compound Path&gt;" class="cls-1" d="M1116.31,808.06H781a31.71,31.71,0,0,1-31.68-31.68V263.68A31.71,31.71,0,0,1,781,232h335.32A31.72,31.72,0,0,1,1148,263.68v512.7A31.72,31.72,0,0,1,1116.31,808.06ZM781,248.42a15.29,15.29,0,0,0-15.27,15.26v512.7A15.29,15.29,0,0,0,781,791.64h335.32a15.29,15.29,0,0,0,15.27-15.26V263.68a15.29,15.29,0,0,0-15.27-15.26Z" transform="translate(-749.31 -232)"/></g><g id="_Group_3" data-name="&lt;Group&gt;"><rect id="_Path_" data-name="&lt;Path&gt;" class="cls-1" x="8.21" y="375.47" width="382.28" height="16.42"/></g><g id="_Group_4" data-name="&lt;Group&gt;"><path id="_Path_2" data-name="&lt;Path&gt;" class="cls-1" d="M1038.41,664.39H858.89a8.21,8.21,0,0,1,0-16.42h179.52a8.21,8.21,0,0,1,0,16.42Z" transform="translate(-749.31 -232)"/></g><g id="_Group_5" data-name="&lt;Group&gt;"><path id="_Path_3" data-name="&lt;Path&gt;" class="cls-1" d="M948.65,623.88a8.21,8.21,0,0,1-8.21-8.21V240.21a8.21,8.21,0,0,1,16.42,0V615.67A8.2,8.2,0,0,1,948.65,623.88Z" transform="translate(-749.31 -232)"/></g><g id="_Group_6" data-name="&lt;Group&gt;"><path id="_Path_4" data-name="&lt;Path&gt;" class="cls-1" d="M986,436.15a8.21,8.21,0,0,1-8.21-8.21V384.16a8.21,8.21,0,0,1,16.42,0v43.78A8.21,8.21,0,0,1,986,436.15Z" transform="translate(-749.31 -232)"/></g><g id="_Group_7" data-name="&lt;Group&gt;"><path id="_Path_5" data-name="&lt;Path&gt;" class="cls-1" d="M910.86,436.15a8.2,8.2,0,0,1-8.21-8.21V384.16a8.21,8.21,0,1,1,16.42,0v43.78A8.21,8.21,0,0,1,910.86,436.15Z" transform="translate(-749.31 -232)"/></g><g id="_Group_8" data-name="&lt;Group&gt;"><path id="_Compound_Path_2" data-name="&lt;Compound Path&gt;" class="cls-1" d="M858.89,465.16h-55a8.22,8.22,0,0,1-8.21-8.21V367.74a8.21,8.21,0,0,1,8.21-8.21h55a8.2,8.2,0,0,1,8.21,8.21V457A8.21,8.21,0,0,1,858.89,465.16Zm-46.8-16.42h38.59V376H812.09Z" transform="translate(-749.31 -232)"/></g></g></svg>